<svg width="2530" height="1612" viewBox="0 0 2530 1612" fill="none" xmlns="http://www.w3.org/2000/svg">
<rect width="1728" height="1080" transform="translate(401 401)" fill="#121214"/>
<g opacity="0.2" filter="url(#filter0_f_167_179)">
<ellipse cx="1265" cy="806.145" rx="864" ry="405.145" fill="#35875D"/>
</g>
<path d="M647.166 1079.33C649.093 1079.33 650.551 1080.06 651.542 1081.52C652.55 1082.96 653.055 1085.06 653.055 1087.82C653.055 1090.58 652.55 1092.69 651.542 1094.15C650.551 1095.61 649.093 1096.34 647.166 1096.34C645.257 1096.34 643.798 1095.61 642.79 1094.15C641.782 1092.69 641.277 1090.58 641.277 1087.82C641.277 1085.08 641.782 1082.98 642.79 1081.52C643.798 1080.06 645.257 1079.33 647.166 1079.33ZM643.195 1087.82C643.195 1089.78 643.393 1091.31 643.789 1092.41L649.786 1081.76C649.156 1081 648.282 1080.63 647.166 1080.63C645.923 1080.63 644.951 1081.22 644.249 1082.41C643.546 1083.58 643.195 1085.38 643.195 1087.82ZM647.166 1095.01C648.427 1095.01 649.408 1094.43 650.11 1093.26C650.813 1092.07 651.164 1090.26 651.164 1087.82C651.164 1085.75 650.939 1084.15 650.488 1083.01L644.492 1093.76C645.14 1094.6 646.031 1095.01 647.166 1095.01Z" fill="url(#paint0_linear_167_179)" fill-opacity="0.6"/>
<path d="M648.787 1122.31H652.757V1123.59H642.466V1122.31H647.058V1108.79L642.682 1111.13L641.926 1110.04L647.328 1107.06H648.787V1122.31Z" fill="url(#paint1_linear_167_179)" fill-opacity="0.6"/>
<path d="M647.166 1134.31C649.093 1134.31 650.551 1135.04 651.542 1136.5C652.55 1137.95 653.055 1140.05 653.055 1142.81C653.055 1145.56 652.55 1147.67 651.542 1149.13C650.551 1150.59 649.093 1151.32 647.166 1151.32C645.257 1151.32 643.798 1150.59 642.79 1149.13C641.782 1147.67 641.277 1145.56 641.277 1142.81C641.277 1140.06 641.782 1137.96 642.79 1136.5C643.798 1135.04 645.257 1134.31 647.166 1134.31ZM643.195 1142.81C643.195 1144.76 643.393 1146.29 643.789 1147.4L649.786 1136.74C649.156 1135.99 648.282 1135.61 647.166 1135.61C645.923 1135.61 644.951 1136.21 644.249 1137.39C643.546 1138.56 643.195 1140.37 643.195 1142.81ZM647.166 1150C648.427 1150 649.408 1149.41 650.11 1148.24C650.813 1147.06 651.164 1145.24 651.164 1142.81C651.164 1140.74 650.939 1139.13 650.488 1138L644.492 1148.75C645.14 1149.58 646.031 1150 647.166 1150Z" fill="url(#paint2_linear_167_179)" fill-opacity="0.6"/>
<path d="M648.787 1177.3H652.757V1178.58H642.466V1177.3H647.058V1163.78L642.682 1166.11L641.926 1165.03L647.328 1162.05H648.787V1177.3Z" fill="url(#paint3_linear_167_179)" fill-opacity="0.6"/>
<path d="M648.787 1204.79H652.757V1206.07H642.466V1204.79H647.058V1191.27L642.682 1193.61L641.926 1192.52L647.328 1189.54H648.787V1204.79Z" fill="url(#paint4_linear_167_179)" fill-opacity="0.6"/>
<path d="M647.166 1216.79C649.093 1216.79 650.551 1217.52 651.542 1218.98C652.55 1220.43 653.055 1222.53 653.055 1225.29C653.055 1228.04 652.55 1230.15 651.542 1231.61C650.551 1233.07 649.093 1233.8 647.166 1233.8C645.257 1233.8 643.798 1233.07 642.79 1231.61C641.782 1230.15 641.277 1228.04 641.277 1225.29C641.277 1222.54 641.782 1220.44 642.79 1218.98C643.798 1217.52 645.257 1216.79 647.166 1216.79ZM643.195 1225.29C643.195 1227.24 643.393 1228.77 643.789 1229.88L649.786 1219.22C649.156 1218.47 648.282 1218.09 647.166 1218.09C645.923 1218.09 644.951 1218.69 644.249 1219.87C643.546 1221.04 643.195 1222.85 643.195 1225.29ZM647.166 1232.48C648.427 1232.48 649.408 1231.89 650.11 1230.72C650.813 1229.54 651.164 1227.72 651.164 1225.29C651.164 1223.22 650.939 1221.61 650.488 1220.47L644.492 1231.23C645.14 1232.06 646.031 1232.48 647.166 1232.48Z" fill="url(#paint5_linear_167_179)" fill-opacity="0.6"/>
<path d="M648.787 1259.78H652.757V1261.05H642.466V1259.78H647.058V1246.26L642.682 1248.59L641.926 1247.51L647.328 1244.53H648.787V1259.78Z" fill="url(#paint6_linear_167_179)" fill-opacity="0.6"/>
<path d="M647.166 1271.78C649.093 1271.78 650.551 1272.51 651.542 1273.97C652.55 1275.41 653.055 1277.51 653.055 1280.27C653.055 1283.03 652.55 1285.14 651.542 1286.6C650.551 1288.06 649.093 1288.79 647.166 1288.79C645.257 1288.79 643.798 1288.06 642.79 1286.6C641.782 1285.14 641.277 1283.03 641.277 1280.27C641.277 1277.53 641.782 1275.43 642.79 1273.97C643.798 1272.51 645.257 1271.78 647.166 1271.78ZM643.195 1280.27C643.195 1282.23 643.393 1283.76 643.789 1284.87L649.786 1274.21C649.156 1273.46 648.282 1273.08 647.166 1273.08C645.923 1273.08 644.951 1273.67 644.249 1274.86C643.546 1276.03 643.195 1277.83 643.195 1280.27ZM647.166 1287.47C648.427 1287.47 649.408 1286.88 650.11 1285.71C650.813 1284.52 651.164 1282.71 651.164 1280.27C651.164 1278.2 650.939 1276.6 650.488 1275.46L644.492 1286.21C645.14 1287.05 646.031 1287.47 647.166 1287.47Z" fill="url(#paint7_linear_167_179)" fill-opacity="0.6"/>
<path d="M647.166 1299.27C649.093 1299.27 650.551 1300 651.542 1301.46C652.55 1302.91 653.055 1305.01 653.055 1307.77C653.055 1310.52 652.55 1312.63 651.542 1314.09C650.551 1315.55 649.093 1316.28 647.166 1316.28C645.257 1316.28 643.798 1315.55 642.79 1314.09C641.782 1312.63 641.277 1310.52 641.277 1307.77C641.277 1305.02 641.782 1302.92 642.79 1301.46C643.798 1300 645.257 1299.27 647.166 1299.27ZM643.195 1307.77C643.195 1309.72 643.393 1311.25 643.789 1312.36L649.786 1301.7C649.156 1300.95 648.282 1300.57 647.166 1300.57C645.923 1300.57 644.951 1301.17 644.249 1302.35C643.546 1303.52 643.195 1305.33 643.195 1307.77ZM647.166 1314.96C648.427 1314.96 649.408 1314.37 650.11 1313.2C650.813 1312.02 651.164 1310.2 651.164 1307.77C651.164 1305.7 650.939 1304.09 650.488 1302.95L644.492 1313.71C645.14 1314.54 646.031 1314.96 647.166 1314.96Z" fill="url(#paint8_linear_167_179)" fill-opacity="0.6"/>
<path d="M648.787 1342.26H652.757V1343.53H642.466V1342.26H647.058V1328.74L642.682 1331.07L641.926 1329.99L647.328 1327.01H648.787V1342.26Z" fill="url(#paint9_linear_167_179)" fill-opacity="0.6"/>
<path d="M647.166 1354.26C649.093 1354.26 650.551 1354.99 651.542 1356.45C652.55 1357.89 653.055 1359.99 653.055 1362.75C653.055 1365.51 652.55 1367.62 651.542 1369.08C650.551 1370.54 649.093 1371.27 647.166 1371.27C645.257 1371.27 643.798 1370.54 642.79 1369.08C641.782 1367.62 641.277 1365.51 641.277 1362.75C641.277 1360.01 641.782 1357.91 642.79 1356.45C643.798 1354.99 645.257 1354.26 647.166 1354.26ZM643.195 1362.75C643.195 1364.71 643.393 1366.24 643.789 1367.35L649.786 1356.69C649.156 1355.94 648.282 1355.56 647.166 1355.56C645.923 1355.56 644.951 1356.15 644.249 1357.34C643.546 1358.51 643.195 1360.31 643.195 1362.75ZM647.166 1369.94C648.427 1369.94 649.408 1369.36 650.11 1368.19C650.813 1367 651.164 1365.19 651.164 1362.75C651.164 1360.68 650.939 1359.08 650.488 1357.94L644.492 1368.69C645.14 1369.53 646.031 1369.94 647.166 1369.94Z" fill="url(#paint10_linear_167_179)" fill-opacity="0.6"/>
<path d="M648.787 1397.25H652.757V1398.52H642.466V1397.25H647.058V1383.73L642.682 1386.06L641.926 1384.98L647.328 1381.99H648.787V1397.25Z" fill="url(#paint11_linear_167_179)" fill-opacity="0.6"/>
<path d="M648.787 1424.74H652.757V1426.01H642.466V1424.74H647.058V1411.22L642.682 1413.55L641.926 1412.47L647.328 1409.49H648.787V1424.74Z" fill="url(#paint12_linear_167_179)" fill-opacity="0.6"/>
<path d="M697.331 1134.31C699.258 1134.31 700.717 1135.04 701.707 1136.5C702.715 1137.95 703.22 1140.05 703.22 1142.81C703.22 1145.56 702.715 1147.67 701.707 1149.13C700.717 1150.59 699.258 1151.32 697.331 1151.32C695.422 1151.32 693.964 1150.59 692.955 1149.13C691.947 1147.67 691.442 1145.56 691.442 1142.81C691.442 1140.06 691.947 1137.96 692.955 1136.5C693.964 1135.04 695.422 1134.31 697.331 1134.31ZM693.36 1142.81C693.36 1144.76 693.558 1146.29 693.955 1147.4L699.951 1136.74C699.321 1135.99 698.448 1135.61 697.331 1135.61C696.089 1135.61 695.116 1136.21 694.414 1137.39C693.711 1138.56 693.36 1140.37 693.36 1142.81ZM697.331 1150C698.592 1150 699.573 1149.41 700.275 1148.24C700.978 1147.06 701.329 1145.24 701.329 1142.81C701.329 1140.74 701.104 1139.13 700.654 1138L694.657 1148.75C695.305 1149.58 696.197 1150 697.331 1150Z" fill="url(#paint13_linear_167_179)" fill-opacity="0.6"/>
<path d="M698.952 1177.3H702.923V1178.58H692.631V1177.3H697.223V1163.78L692.847 1166.11L692.091 1165.03L697.493 1162.05H698.952V1177.3Z" fill="url(#paint14_linear_167_179)" fill-opacity="0.6"/>
<path d="M697.331 1189.3C699.258 1189.3 700.717 1190.03 701.707 1191.49C702.715 1192.93 703.22 1195.03 703.22 1197.79C703.22 1200.55 702.715 1202.66 701.707 1204.12C700.717 1205.58 699.258 1206.31 697.331 1206.31C695.422 1206.31 693.964 1205.58 692.955 1204.12C691.947 1202.66 691.442 1200.55 691.442 1197.79C691.442 1195.05 691.947 1192.95 692.955 1191.49C693.964 1190.03 695.422 1189.3 697.331 1189.3ZM693.36 1197.79C693.36 1199.75 693.558 1201.28 693.955 1202.39L699.951 1191.73C699.321 1190.98 698.448 1190.6 697.331 1190.6C696.089 1190.6 695.116 1191.19 694.414 1192.38C693.711 1193.55 693.36 1195.36 693.36 1197.79ZM697.331 1204.99C698.592 1204.99 699.573 1204.4 700.275 1203.23C700.978 1202.04 701.329 1200.23 701.329 1197.79C701.329 1195.72 701.104 1194.12 700.654 1192.98L694.657 1203.73C695.305 1204.57 696.197 1204.99 697.331 1204.99Z" fill="url(#paint15_linear_167_179)" fill-opacity="0.6"/>
<path d="M697.331 1216.79C699.258 1216.79 700.717 1217.52 701.707 1218.98C702.715 1220.43 703.22 1222.53 703.22 1225.29C703.22 1228.04 702.715 1230.15 701.707 1231.61C700.717 1233.07 699.258 1233.8 697.331 1233.8C695.422 1233.8 693.964 1233.07 692.955 1231.61C691.947 1230.15 691.442 1228.04 691.442 1225.29C691.442 1222.54 691.947 1220.44 692.955 1218.98C693.964 1217.52 695.422 1216.79 697.331 1216.79ZM693.36 1225.29C693.36 1227.24 693.558 1228.77 693.955 1229.88L699.951 1219.22C699.321 1218.47 698.448 1218.09 697.331 1218.09C696.089 1218.09 695.116 1218.69 694.414 1219.87C693.711 1221.04 693.36 1222.85 693.36 1225.29ZM697.331 1232.48C698.592 1232.48 699.573 1231.89 700.275 1230.72C700.978 1229.54 701.329 1227.72 701.329 1225.29C701.329 1223.22 701.104 1221.61 700.654 1220.47L694.657 1231.23C695.305 1232.06 696.197 1232.48 697.331 1232.48Z" fill="url(#paint16_linear_167_179)" fill-opacity="0.6"/>
<path d="M698.952 1259.78H702.923V1261.05H692.631V1259.78H697.223V1246.26L692.847 1248.59L692.091 1247.51L697.493 1244.53H698.952V1259.78Z" fill="url(#paint17_linear_167_179)" fill-opacity="0.6"/>
<path d="M697.331 1271.78C699.258 1271.78 700.717 1272.51 701.707 1273.97C702.715 1275.41 703.22 1277.51 703.22 1280.27C703.22 1283.03 702.715 1285.14 701.707 1286.6C700.717 1288.06 699.258 1288.79 697.331 1288.79C695.422 1288.79 693.964 1288.06 692.955 1286.6C691.947 1285.14 691.442 1283.03 691.442 1280.27C691.442 1277.53 691.947 1275.43 692.955 1273.97C693.964 1272.51 695.422 1271.78 697.331 1271.78ZM693.36 1280.27C693.36 1282.23 693.558 1283.76 693.955 1284.87L699.951 1274.21C699.321 1273.46 698.448 1273.08 697.331 1273.08C696.089 1273.08 695.116 1273.67 694.414 1274.86C693.711 1276.03 693.36 1277.83 693.36 1280.27ZM697.331 1287.47C698.592 1287.47 699.573 1286.88 700.275 1285.71C700.978 1284.52 701.329 1282.71 701.329 1280.27C701.329 1278.2 701.104 1276.6 700.654 1275.46L694.657 1286.21C695.305 1287.05 696.197 1287.47 697.331 1287.47Z" fill="url(#paint18_linear_167_179)" fill-opacity="0.6"/>
<path d="M698.952 1314.77H702.923V1316.04H692.631V1314.77H697.223V1301.25L692.847 1303.58L692.091 1302.5L697.493 1299.51H698.952V1314.77Z" fill="url(#paint19_linear_167_179)" fill-opacity="0.6"/>
<path d="M697.331 1326.77C699.258 1326.77 700.717 1327.5 701.707 1328.96C702.715 1330.4 703.22 1332.5 703.22 1335.26C703.22 1338.02 702.715 1340.13 701.707 1341.59C700.717 1343.05 699.258 1343.77 697.331 1343.77C695.422 1343.77 693.964 1343.05 692.955 1341.59C691.947 1340.13 691.442 1338.02 691.442 1335.26C691.442 1332.52 691.947 1330.42 692.955 1328.96C693.964 1327.5 695.422 1326.77 697.331 1326.77ZM693.36 1335.26C693.36 1337.22 693.558 1338.75 693.955 1339.85L699.951 1329.2C699.321 1328.44 698.448 1328.07 697.331 1328.07C696.089 1328.07 695.116 1328.66 694.414 1329.85C693.711 1331.02 693.36 1332.82 693.36 1335.26ZM697.331 1342.45C698.592 1342.45 699.573 1341.87 700.275 1340.7C700.978 1339.51 701.329 1337.7 701.329 1335.26C701.329 1333.19 701.104 1331.59 700.654 1330.45L694.657 1341.2C695.305 1342.03 696.197 1342.45 697.331 1342.45Z" fill="url(#paint20_linear_167_179)" fill-opacity="0.6"/>
<path d="M697.331 1354.26C699.258 1354.26 700.717 1354.99 701.707 1356.45C702.715 1357.89 703.22 1359.99 703.22 1362.75C703.22 1365.51 702.715 1367.62 701.707 1369.08C700.717 1370.54 699.258 1371.27 697.331 1371.27C695.422 1371.27 693.964 1370.54 692.955 1369.08C691.947 1367.62 691.442 1365.51 691.442 1362.75C691.442 1360.01 691.947 1357.91 692.955 1356.45C693.964 1354.99 695.422 1354.26 697.331 1354.26ZM693.36 1362.75C693.36 1364.71 693.558 1366.24 693.955 1367.35L699.951 1356.69C699.321 1355.94 698.448 1355.56 697.331 1355.56C696.089 1355.56 695.116 1356.15 694.414 1357.34C693.711 1358.51 693.36 1360.31 693.36 1362.75ZM697.331 1369.94C698.592 1369.94 699.573 1369.36 700.275 1368.19C700.978 1367 701.329 1365.19 701.329 1362.75C701.329 1360.68 701.104 1359.08 700.654 1357.94L694.657 1368.69C695.305 1369.53 696.197 1369.94 697.331 1369.94Z" fill="url(#paint21_linear_167_179)" fill-opacity="0.6"/>
<path d="M698.952 1397.25H702.923V1398.52H692.631V1397.25H697.223V1383.73L692.847 1386.06L692.091 1384.98L697.493 1381.99H698.952V1397.25Z" fill="url(#paint22_linear_167_179)" fill-opacity="0.6"/>
<path d="M697.331 1409.25C699.258 1409.25 700.717 1409.98 701.707 1411.44C702.715 1412.88 703.22 1414.98 703.22 1417.74C703.22 1420.5 702.715 1422.61 701.707 1424.07C700.717 1425.52 699.258 1426.25 697.331 1426.25C695.422 1426.25 693.964 1425.52 692.955 1424.07C691.947 1422.61 691.442 1420.5 691.442 1417.74C691.442 1415 691.947 1412.89 692.955 1411.44C693.964 1409.98 695.422 1409.25 697.331 1409.25ZM693.36 1417.74C693.36 1419.69 693.558 1421.23 693.955 1422.33L699.951 1411.68C699.321 1410.92 698.448 1410.55 697.331 1410.55C696.089 1410.55 695.116 1411.14 694.414 1412.33C693.711 1413.5 693.36 1415.3 693.36 1417.74ZM697.331 1424.93C698.592 1424.93 699.573 1424.35 700.275 1423.18C700.978 1421.99 701.329 1420.18 701.329 1417.74C701.329 1415.67 701.104 1414.07 700.654 1412.93L694.657 1423.68C695.305 1424.51 696.197 1424.93 697.331 1424.93Z" fill="url(#paint23_linear_167_179)" fill-opacity="0.6"/>
<path d="M698.952 1452.23H702.923V1453.51H692.631V1452.23H697.223V1438.71L692.847 1441.05L692.091 1439.96L697.493 1436.98H698.952V1452.23Z" fill="url(#paint24_linear_167_179)" fill-opacity="0.6"/>
<path d="M698.952 1479.73H702.923V1481H692.631V1479.73H697.223V1466.21L692.847 1468.54L692.091 1467.46L697.493 1464.47H698.952V1479.73Z" fill="url(#paint25_linear_167_179)" fill-opacity="0.6"/>
<path d="M622.083 1161.81C624.01 1161.81 625.469 1162.54 626.459 1164C627.468 1165.44 627.972 1167.54 627.972 1170.3C627.972 1173.06 627.468 1175.17 626.459 1176.63C625.469 1178.09 624.01 1178.82 622.083 1178.82C620.175 1178.82 618.716 1178.09 617.707 1176.63C616.699 1175.17 616.195 1173.06 616.195 1170.3C616.195 1167.56 616.699 1165.46 617.707 1164C618.716 1162.54 620.175 1161.81 622.083 1161.81ZM618.113 1170.3C618.113 1172.26 618.311 1173.79 618.707 1174.89L624.704 1164.24C624.073 1163.48 623.2 1163.11 622.083 1163.11C620.841 1163.11 619.868 1163.7 619.166 1164.89C618.464 1166.06 618.113 1167.86 618.113 1170.3ZM622.083 1177.49C623.344 1177.49 624.325 1176.91 625.028 1175.74C625.73 1174.55 626.081 1172.74 626.081 1170.3C626.081 1168.23 625.856 1166.63 625.406 1165.49L619.409 1176.24C620.058 1177.08 620.949 1177.49 622.083 1177.49Z" fill="url(#paint26_linear_167_179)" fill-opacity="0.6"/>
<path d="M622.083 1189.3C624.01 1189.3 625.469 1190.03 626.459 1191.49C627.468 1192.93 627.972 1195.03 627.972 1197.79C627.972 1200.55 627.468 1202.66 626.459 1204.12C625.469 1205.58 624.01 1206.31 622.083 1206.31C620.175 1206.31 618.716 1205.58 617.707 1204.12C616.699 1202.66 616.195 1200.55 616.195 1197.79C616.195 1195.05 616.699 1192.95 617.707 1191.49C618.716 1190.03 620.175 1189.3 622.083 1189.3ZM618.113 1197.79C618.113 1199.75 618.311 1201.28 618.707 1202.39L624.704 1191.73C624.073 1190.98 623.2 1190.6 622.083 1190.6C620.841 1190.6 619.868 1191.19 619.166 1192.38C618.464 1193.55 618.113 1195.36 618.113 1197.79ZM622.083 1204.99C623.344 1204.99 624.325 1204.4 625.028 1203.23C625.73 1202.04 626.081 1200.23 626.081 1197.79C626.081 1195.72 625.856 1194.12 625.406 1192.98L619.409 1203.73C620.058 1204.57 620.949 1204.99 622.083 1204.99Z" fill="url(#paint27_linear_167_179)" fill-opacity="0.6"/>
<path d="M623.704 1232.29H627.675V1233.56H617.383V1232.29H621.975V1218.77L617.599 1221.1L616.843 1220.02L622.246 1217.03H623.704V1232.29Z" fill="url(#paint28_linear_167_179)" fill-opacity="0.6"/>
<path d="M622.083 1244.29C624.01 1244.29 625.469 1245.02 626.459 1246.48C627.468 1247.92 627.972 1250.02 627.972 1252.78C627.972 1255.54 627.468 1257.65 626.459 1259.11C625.469 1260.57 624.01 1261.3 622.083 1261.3C620.175 1261.3 618.716 1260.57 617.707 1259.11C616.699 1257.65 616.195 1255.54 616.195 1252.78C616.195 1250.04 616.699 1247.94 617.707 1246.48C618.716 1245.02 620.175 1244.29 622.083 1244.29ZM618.113 1252.78C618.113 1254.74 618.311 1256.27 618.707 1257.37L624.704 1246.72C624.073 1245.96 623.2 1245.59 622.083 1245.59C620.841 1245.59 619.868 1246.18 619.166 1247.37C618.464 1248.54 618.113 1250.34 618.113 1252.78ZM622.083 1259.97C623.344 1259.97 624.325 1259.39 625.028 1258.22C625.73 1257.03 626.081 1255.22 626.081 1252.78C626.081 1250.71 625.856 1249.11 625.406 1247.97L619.409 1258.72C620.058 1259.56 620.949 1259.97 622.083 1259.97Z" fill="url(#paint29_linear_167_179)" fill-opacity="0.6"/>
<path d="M623.704 1287.27H627.675V1288.55H617.383V1287.27H621.975V1273.75L617.599 1276.09L616.843 1275L622.246 1272.02H623.704V1287.27Z" fill="url(#paint30_linear_167_179)" fill-opacity="0.6"/>
<path d="M623.704 1314.77H627.675V1316.04H617.383V1314.77H621.975V1301.25L617.599 1303.58L616.843 1302.5L622.246 1299.51H623.704V1314.77Z" fill="url(#paint31_linear_167_179)" fill-opacity="0.6"/>
<path d="M673.869 1122.31H677.84V1123.59H667.548V1122.31H672.14V1108.79L667.765 1111.13L667.008 1110.04L672.411 1107.06H673.869V1122.31Z" fill="url(#paint32_linear_167_179)" fill-opacity="0.6"/>
<path d="M672.249 1134.31C674.175 1134.31 675.634 1135.04 676.624 1136.5C677.633 1137.95 678.137 1140.05 678.137 1142.81C678.137 1145.56 677.633 1147.67 676.624 1149.13C675.634 1150.59 674.175 1151.32 672.249 1151.32C670.34 1151.32 668.881 1150.59 667.873 1149.13C666.864 1147.67 666.36 1145.56 666.36 1142.81C666.36 1140.06 666.864 1137.96 667.873 1136.5C668.881 1135.04 670.34 1134.31 672.249 1134.31ZM668.278 1142.81C668.278 1144.76 668.476 1146.29 668.872 1147.4L674.869 1136.74C674.238 1135.99 673.365 1135.61 672.249 1135.61C671.006 1135.61 670.034 1136.21 669.331 1137.39C668.629 1138.56 668.278 1140.37 668.278 1142.81ZM672.249 1150C673.509 1150 674.491 1149.41 675.193 1148.24C675.895 1147.06 676.246 1145.24 676.246 1142.81C676.246 1140.74 676.021 1139.13 675.571 1138L669.574 1148.75C670.223 1149.58 671.114 1150 672.249 1150Z" fill="url(#paint33_linear_167_179)" fill-opacity="0.6"/>
<path d="M673.869 1177.3H677.84V1178.58H667.548V1177.3H672.14V1163.78L667.765 1166.11L667.008 1165.03L672.411 1162.05H673.869V1177.3Z" fill="url(#paint34_linear_167_179)" fill-opacity="0.6"/>
<path d="M673.869 1204.79H677.84V1206.07H667.548V1204.79H672.14V1191.27L667.765 1193.61L667.008 1192.52L672.411 1189.54H673.869V1204.79Z" fill="url(#paint35_linear_167_179)" fill-opacity="0.6"/>
<path d="M672.249 1216.79C674.175 1216.79 675.634 1217.52 676.624 1218.98C677.633 1220.43 678.137 1222.53 678.137 1225.29C678.137 1228.04 677.633 1230.15 676.624 1231.61C675.634 1233.07 674.175 1233.8 672.249 1233.8C670.34 1233.8 668.881 1233.07 667.873 1231.61C666.864 1230.15 666.36 1228.04 666.36 1225.29C666.36 1222.54 666.864 1220.44 667.873 1218.98C668.881 1217.52 670.34 1216.79 672.249 1216.79ZM668.278 1225.29C668.278 1227.24 668.476 1228.77 668.872 1229.88L674.869 1219.22C674.238 1218.47 673.365 1218.09 672.249 1218.09C671.006 1218.09 670.034 1218.69 669.331 1219.87C668.629 1221.04 668.278 1222.85 668.278 1225.29ZM672.249 1232.48C673.509 1232.48 674.491 1231.89 675.193 1230.72C675.895 1229.54 676.246 1227.72 676.246 1225.29C676.246 1223.22 676.021 1221.61 675.571 1220.47L669.574 1231.23C670.223 1232.06 671.114 1232.48 672.249 1232.48Z" fill="url(#paint36_linear_167_179)" fill-opacity="0.6"/>
<path d="M673.869 1259.78H677.84V1261.05H667.548V1259.78H672.14V1246.26L667.765 1248.59L667.008 1247.51L672.411 1244.53H673.869V1259.78Z" fill="url(#paint37_linear_167_179)" fill-opacity="0.6"/>
<path d="M673.869 1287.27H677.84V1288.55H667.548V1287.27H672.14V1273.75L667.765 1276.09L667.008 1275L672.411 1272.02H673.869V1287.27Z" fill="url(#paint38_linear_167_179)" fill-opacity="0.6"/>
<path d="M672.249 1299.27C674.175 1299.27 675.634 1300 676.624 1301.46C677.633 1302.91 678.137 1305.01 678.137 1307.77C678.137 1310.52 677.633 1312.63 676.624 1314.09C675.634 1315.55 674.175 1316.28 672.249 1316.28C670.34 1316.28 668.881 1315.55 667.873 1314.09C666.864 1312.63 666.36 1310.52 666.36 1307.77C666.36 1305.02 666.864 1302.92 667.873 1301.46C668.881 1300 670.34 1299.27 672.249 1299.27ZM668.278 1307.77C668.278 1309.72 668.476 1311.25 668.872 1312.36L674.869 1301.7C674.238 1300.95 673.365 1300.57 672.249 1300.57C671.006 1300.57 670.034 1301.17 669.331 1302.35C668.629 1303.52 668.278 1305.33 668.278 1307.77ZM672.249 1314.96C673.509 1314.96 674.491 1314.37 675.193 1313.2C675.895 1312.02 676.246 1310.2 676.246 1307.77C676.246 1305.7 676.021 1304.09 675.571 1302.95L669.574 1313.71C670.223 1314.54 671.114 1314.96 672.249 1314.96Z" fill="url(#paint39_linear_167_179)" fill-opacity="0.6"/>
<path d="M673.869 1342.26H677.84V1343.53H667.548V1342.26H672.14V1328.74L667.765 1331.07L667.008 1329.99L672.411 1327.01H673.869V1342.26Z" fill="url(#paint40_linear_167_179)" fill-opacity="0.6"/>
<path d="M672.249 1354.26C674.175 1354.26 675.634 1354.99 676.624 1356.45C677.633 1357.89 678.137 1359.99 678.137 1362.75C678.137 1365.51 677.633 1367.62 676.624 1369.08C675.634 1370.54 674.175 1371.27 672.249 1371.27C670.34 1371.27 668.881 1370.54 667.873 1369.08C666.864 1367.62 666.36 1365.51 666.36 1362.75C666.36 1360.01 666.864 1357.91 667.873 1356.45C668.881 1354.99 670.34 1354.26 672.249 1354.26ZM668.278 1362.75C668.278 1364.71 668.476 1366.24 668.872 1367.35L674.869 1356.69C674.238 1355.94 673.365 1355.56 672.249 1355.56C671.006 1355.56 670.034 1356.15 669.331 1357.34C668.629 1358.51 668.278 1360.31 668.278 1362.75ZM672.249 1369.94C673.509 1369.94 674.491 1369.36 675.193 1368.19C675.895 1367 676.246 1365.19 676.246 1362.75C676.246 1360.68 676.021 1359.08 675.571 1357.94L669.574 1368.69C670.223 1369.53 671.114 1369.94 672.249 1369.94Z" fill="url(#paint41_linear_167_179)" fill-opacity="0.6"/>
<path d="M722.414 1106.82C724.34 1106.82 725.799 1107.55 726.79 1109.01C727.798 1110.45 728.302 1112.55 728.302 1115.31C728.302 1118.07 727.798 1120.18 726.79 1121.64C725.799 1123.1 724.34 1123.83 722.414 1123.83C720.505 1123.83 719.046 1123.1 718.038 1121.64C717.029 1120.18 716.525 1118.07 716.525 1115.31C716.525 1112.57 717.029 1110.47 718.038 1109.01C719.046 1107.55 720.505 1106.82 722.414 1106.82ZM718.443 1115.31C718.443 1117.27 718.641 1118.8 719.037 1119.91L725.034 1109.25C724.403 1108.5 723.53 1108.12 722.414 1108.12C721.171 1108.12 720.199 1108.71 719.496 1109.9C718.794 1111.07 718.443 1112.88 718.443 1115.31ZM722.414 1122.51C723.674 1122.51 724.656 1121.92 725.358 1120.75C726.06 1119.56 726.411 1117.75 726.411 1115.31C726.411 1113.24 726.186 1111.64 725.736 1110.5L719.739 1121.26C720.388 1122.09 721.279 1122.51 722.414 1122.51Z" fill="url(#paint42_linear_167_179)" fill-opacity="0.6"/>
<path d="M724.034 1149.81H728.005V1151.08H717.714V1149.81H722.306V1136.29L717.93 1138.62L717.173 1137.54L722.576 1134.56H724.034V1149.81Z" fill="url(#paint43_linear_167_179)" fill-opacity="0.6"/>
<path d="M724.034 1177.3H728.005V1178.58H717.714V1177.3H722.306V1163.78L717.93 1166.11L717.173 1165.03L722.576 1162.05H724.034V1177.3Z" fill="url(#paint44_linear_167_179)" fill-opacity="0.6"/>
<path d="M722.414 1189.3C724.34 1189.3 725.799 1190.03 726.79 1191.49C727.798 1192.93 728.302 1195.03 728.302 1197.79C728.302 1200.55 727.798 1202.66 726.79 1204.12C725.799 1205.58 724.34 1206.31 722.414 1206.31C720.505 1206.31 719.046 1205.58 718.038 1204.12C717.029 1202.66 716.525 1200.55 716.525 1197.79C716.525 1195.05 717.029 1192.95 718.038 1191.49C719.046 1190.03 720.505 1189.3 722.414 1189.3ZM718.443 1197.79C718.443 1199.75 718.641 1201.28 719.037 1202.39L725.034 1191.73C724.403 1190.98 723.53 1190.6 722.414 1190.6C721.171 1190.6 720.199 1191.19 719.496 1192.38C718.794 1193.55 718.443 1195.36 718.443 1197.79ZM722.414 1204.99C723.674 1204.99 724.656 1204.4 725.358 1203.23C726.06 1202.04 726.411 1200.23 726.411 1197.79C726.411 1195.72 726.186 1194.12 725.736 1192.98L719.739 1203.73C720.388 1204.57 721.279 1204.99 722.414 1204.99Z" fill="url(#paint45_linear_167_179)" fill-opacity="0.6"/>
<path d="M722.414 1216.79C724.34 1216.79 725.799 1217.52 726.79 1218.98C727.798 1220.43 728.302 1222.53 728.302 1225.29C728.302 1228.04 727.798 1230.15 726.79 1231.61C725.799 1233.07 724.34 1233.8 722.414 1233.8C720.505 1233.8 719.046 1233.07 718.038 1231.61C717.029 1230.15 716.525 1228.04 716.525 1225.29C716.525 1222.54 717.029 1220.44 718.038 1218.98C719.046 1217.52 720.505 1216.79 722.414 1216.79ZM718.443 1225.29C718.443 1227.24 718.641 1228.77 719.037 1229.88L725.034 1219.22C724.403 1218.47 723.53 1218.09 722.414 1218.09C721.171 1218.09 720.199 1218.69 719.496 1219.87C718.794 1221.04 718.443 1222.85 718.443 1225.29ZM722.414 1232.48C723.674 1232.48 724.656 1231.89 725.358 1230.72C726.06 1229.54 726.411 1227.72 726.411 1225.29C726.411 1223.22 726.186 1221.61 725.736 1220.47L719.739 1231.23C720.388 1232.06 721.279 1232.48 722.414 1232.48Z" fill="url(#paint46_linear_167_179)" fill-opacity="0.6"/>
<g opacity="0.6">
<path d="M1790.01 732.062C1791.85 732.062 1793.24 732.762 1794.18 734.162C1795.15 735.548 1795.63 737.564 1795.63 740.211C1795.63 742.858 1795.15 744.882 1794.18 746.282C1793.24 747.683 1791.85 748.383 1790.01 748.383C1788.19 748.383 1786.8 747.683 1785.84 746.282C1784.87 744.882 1784.39 742.858 1784.39 740.211C1784.39 737.579 1784.87 735.563 1785.84 734.162C1786.8 732.762 1788.19 732.062 1790.01 732.062ZM1786.22 740.211C1786.22 742.089 1786.41 743.558 1786.79 744.62L1792.51 734.393C1791.91 733.67 1791.08 733.308 1790.01 733.308C1788.82 733.308 1787.9 733.878 1787.23 735.017C1786.56 736.14 1786.22 737.871 1786.22 740.211ZM1790.01 747.114C1791.21 747.114 1792.15 746.552 1792.82 745.428C1793.49 744.289 1793.82 742.55 1793.82 740.211C1793.82 738.225 1793.61 736.686 1793.18 735.594L1787.46 745.913C1788.08 746.713 1788.93 747.114 1790.01 747.114Z" fill="url(#paint47_linear_167_179)"/>
<path d="M1791.56 773.313H1795.34V774.536H1785.53V773.313H1789.91V760.339L1785.73 762.578L1785.01 761.539L1790.16 758.676H1791.56V773.313Z" fill="url(#paint48_linear_167_179)"/>
<path d="M1790.01 784.829C1791.85 784.829 1793.24 785.53 1794.18 786.93C1795.15 788.315 1795.63 790.332 1795.63 792.979C1795.63 795.626 1795.15 797.65 1794.18 799.05C1793.24 800.451 1791.85 801.151 1790.01 801.151C1788.19 801.151 1786.8 800.451 1785.84 799.05C1784.87 797.65 1784.39 795.626 1784.39 792.979C1784.39 790.347 1784.87 788.331 1785.84 786.93C1786.8 785.53 1788.19 784.829 1790.01 784.829ZM1786.22 792.979C1786.22 794.856 1786.41 796.326 1786.79 797.388L1792.51 787.161C1791.91 786.438 1791.08 786.076 1790.01 786.076C1788.82 786.076 1787.9 786.646 1787.23 787.784C1786.56 788.908 1786.22 790.639 1786.22 792.979ZM1790.01 799.881C1791.21 799.881 1792.15 799.32 1792.82 798.196C1793.49 797.057 1793.82 795.318 1793.82 792.979C1793.82 790.993 1793.61 789.454 1793.18 788.362L1787.46 798.681C1788.08 799.481 1788.93 799.881 1790.01 799.881Z" fill="url(#paint49_linear_167_179)"/>
<path d="M1791.56 826.081H1795.34V827.304H1785.53V826.081H1789.91V813.106L1785.73 815.346L1785.01 814.307L1790.16 811.444H1791.56V826.081Z" fill="url(#paint50_linear_167_179)"/>
<path d="M1791.56 852.465H1795.34V853.688H1785.53V852.465H1789.91V839.49L1785.73 841.73L1785.01 840.691L1790.16 837.828H1791.56V852.465Z" fill="url(#paint51_linear_167_179)"/>
<path d="M1790.01 863.981C1791.85 863.981 1793.24 864.682 1794.18 866.082C1795.15 867.467 1795.63 869.483 1795.63 872.131C1795.63 874.778 1795.15 876.802 1794.18 878.202C1793.24 879.603 1791.85 880.303 1790.01 880.303C1788.19 880.303 1786.8 879.603 1785.84 878.202C1784.87 876.802 1784.39 874.778 1784.39 872.131C1784.39 869.499 1784.87 867.483 1785.84 866.082C1786.8 864.682 1788.19 863.981 1790.01 863.981ZM1786.22 872.131C1786.22 874.008 1786.41 875.478 1786.79 876.54L1792.51 866.313C1791.91 865.59 1791.08 865.228 1790.01 865.228C1788.82 865.228 1787.9 865.797 1787.23 866.936C1786.56 868.06 1786.22 869.791 1786.22 872.131ZM1790.01 879.033C1791.21 879.033 1792.15 878.472 1792.82 877.348C1793.49 876.209 1793.82 874.47 1793.82 872.131C1793.82 870.145 1793.61 868.606 1793.18 867.513L1787.46 877.833C1788.08 878.633 1788.93 879.033 1790.01 879.033Z" fill="url(#paint52_linear_167_179)"/>
<path d="M1791.56 905.233H1795.34V906.456H1785.53V905.233H1789.91V892.258L1785.73 894.498L1785.01 893.459L1790.16 890.596H1791.56V905.233Z" fill="url(#paint53_linear_167_179)"/>
<path d="M1790.01 916.749C1791.85 916.749 1793.24 917.449 1794.18 918.85C1795.15 920.235 1795.63 922.251 1795.63 924.899C1795.63 927.546 1795.15 929.57 1794.18 930.97C1793.24 932.371 1791.85 933.071 1790.01 933.071C1788.19 933.071 1786.8 932.371 1785.84 930.97C1784.87 929.57 1784.39 927.546 1784.39 924.899C1784.39 922.267 1784.87 920.251 1785.84 918.85C1786.8 917.449 1788.19 916.749 1790.01 916.749ZM1786.22 924.899C1786.22 926.776 1786.41 928.246 1786.79 929.308L1792.51 919.081C1791.91 918.358 1791.08 917.996 1790.01 917.996C1788.82 917.996 1787.9 918.565 1787.23 919.704C1786.56 920.828 1786.22 922.559 1786.22 924.899ZM1790.01 931.801C1791.21 931.801 1792.15 931.239 1792.82 930.116C1793.49 928.977 1793.82 927.238 1793.82 924.899C1793.82 922.913 1793.61 921.374 1793.18 920.281L1787.46 930.601C1788.08 931.401 1788.93 931.801 1790.01 931.801Z" fill="url(#paint54_linear_167_179)"/>
<path d="M1790.01 943.133C1791.85 943.133 1793.24 943.833 1794.18 945.234C1795.15 946.619 1795.63 948.635 1795.63 951.282C1795.63 953.93 1795.15 955.954 1794.18 957.354C1793.24 958.755 1791.85 959.455 1790.01 959.455C1788.19 959.455 1786.8 958.755 1785.84 957.354C1784.87 955.954 1784.39 953.93 1784.39 951.282C1784.39 948.651 1784.87 946.635 1785.84 945.234C1786.8 943.833 1788.19 943.133 1790.01 943.133ZM1786.22 951.282C1786.22 953.16 1786.41 954.63 1786.79 955.692L1792.51 945.465C1791.91 944.741 1791.08 944.38 1790.01 944.38C1788.82 944.38 1787.9 944.949 1787.23 946.088C1786.56 947.212 1786.22 948.943 1786.22 951.282ZM1790.01 958.185C1791.21 958.185 1792.15 957.623 1792.82 956.5C1793.49 955.361 1793.82 953.622 1793.82 951.282C1793.82 949.297 1793.61 947.758 1793.18 946.665L1787.46 956.985C1788.08 957.785 1788.93 958.185 1790.01 958.185Z" fill="url(#paint55_linear_167_179)"/>
<path d="M1791.56 984.384H1795.34V985.608H1785.53V984.384H1789.91V971.41L1785.73 973.649L1785.01 972.611L1790.16 969.748H1791.56V984.384Z" fill="url(#paint56_linear_167_179)"/>
<path d="M1790.01 995.901C1791.85 995.901 1793.24 996.601 1794.18 998.002C1795.15 999.387 1795.63 1001.4 1795.63 1004.05C1795.63 1006.7 1795.15 1008.72 1794.18 1010.12C1793.24 1011.52 1791.85 1012.22 1790.01 1012.22C1788.19 1012.22 1786.8 1011.52 1785.84 1010.12C1784.87 1008.72 1784.39 1006.7 1784.39 1004.05C1784.39 1001.42 1784.87 999.402 1785.84 998.002C1786.8 996.601 1788.19 995.901 1790.01 995.901ZM1786.22 1004.05C1786.22 1005.93 1786.41 1007.4 1786.79 1008.46L1792.51 998.233C1791.91 997.509 1791.08 997.148 1790.01 997.148C1788.82 997.148 1787.9 997.717 1787.23 998.856C1786.56 999.98 1786.22 1001.71 1786.22 1004.05ZM1790.01 1010.95C1791.21 1010.95 1792.15 1010.39 1792.82 1009.27C1793.49 1008.13 1793.82 1006.39 1793.82 1004.05C1793.82 1002.06 1793.61 1000.53 1793.18 999.433L1787.46 1009.75C1788.08 1010.55 1788.93 1010.95 1790.01 1010.95Z" fill="url(#paint57_linear_167_179)"/>
<path d="M1791.56 1037.15H1795.34V1038.38H1785.53V1037.15H1789.91V1024.18L1785.73 1026.42L1785.01 1025.38L1790.16 1022.52H1791.56V1037.15Z" fill="url(#paint58_linear_167_179)"/>
<path d="M1791.56 1063.54H1795.34V1064.76H1785.53V1063.54H1789.91V1050.56L1785.73 1052.8L1785.01 1051.76L1790.16 1048.9H1791.56V1063.54Z" fill="url(#paint59_linear_167_179)"/>
<path d="M1837.87 784.829C1839.71 784.829 1841.1 785.53 1842.04 786.93C1843.01 788.315 1843.49 790.332 1843.49 792.979C1843.49 795.626 1843.01 797.65 1842.04 799.05C1841.1 800.451 1839.71 801.151 1837.87 801.151C1836.05 801.151 1834.66 800.451 1833.69 799.05C1832.73 797.65 1832.25 795.626 1832.25 792.979C1832.25 790.347 1832.73 788.331 1833.69 786.93C1834.66 785.53 1836.05 784.829 1837.87 784.829ZM1834.08 792.979C1834.08 794.856 1834.27 796.326 1834.65 797.388L1840.37 787.161C1839.77 786.438 1838.93 786.076 1837.87 786.076C1836.68 786.076 1835.76 786.646 1835.09 787.784C1834.42 788.908 1834.08 790.639 1834.08 792.979ZM1837.87 799.881C1839.07 799.881 1840.01 799.32 1840.68 798.196C1841.35 797.057 1841.68 795.318 1841.68 792.979C1841.68 790.993 1841.47 789.454 1841.04 788.362L1835.32 798.681C1835.94 799.481 1836.79 799.881 1837.87 799.881Z" fill="url(#paint60_linear_167_179)"/>
<path d="M1839.41 826.081H1843.2V827.304H1833.38V826.081H1837.77V813.106L1833.59 815.346L1832.87 814.307L1838.02 811.444H1839.41V826.081Z" fill="url(#paint61_linear_167_179)"/>
<path d="M1837.87 837.597C1839.71 837.597 1841.1 838.298 1842.04 839.698C1843.01 841.083 1843.49 843.099 1843.49 845.747C1843.49 848.394 1843.01 850.418 1842.04 851.818C1841.1 853.219 1839.71 853.919 1837.87 853.919C1836.05 853.919 1834.66 853.219 1833.69 851.818C1832.73 850.418 1832.25 848.394 1832.25 845.747C1832.25 843.115 1832.73 841.099 1833.69 839.698C1834.66 838.298 1836.05 837.597 1837.87 837.597ZM1834.08 845.747C1834.08 847.624 1834.27 849.094 1834.65 850.156L1840.37 839.929C1839.77 839.206 1838.93 838.844 1837.87 838.844C1836.68 838.844 1835.76 839.413 1835.09 840.552C1834.42 841.676 1834.08 843.407 1834.08 845.747ZM1837.87 852.649C1839.07 852.649 1840.01 852.088 1840.68 850.964C1841.35 849.825 1841.68 848.086 1841.68 845.747C1841.68 843.761 1841.47 842.222 1841.04 841.129L1835.32 851.449C1835.94 852.249 1836.79 852.649 1837.87 852.649Z" fill="url(#paint62_linear_167_179)"/>
<path d="M1837.87 863.981C1839.71 863.981 1841.1 864.682 1842.04 866.082C1843.01 867.467 1843.49 869.483 1843.49 872.131C1843.49 874.778 1843.01 876.802 1842.04 878.202C1841.1 879.603 1839.71 880.303 1837.87 880.303C1836.05 880.303 1834.66 879.603 1833.69 878.202C1832.73 876.802 1832.25 874.778 1832.25 872.131C1832.25 869.499 1832.73 867.483 1833.69 866.082C1834.66 864.682 1836.05 863.981 1837.87 863.981ZM1834.08 872.131C1834.08 874.008 1834.27 875.478 1834.65 876.54L1840.37 866.313C1839.77 865.59 1838.93 865.228 1837.87 865.228C1836.68 865.228 1835.76 865.797 1835.09 866.936C1834.42 868.06 1834.08 869.791 1834.08 872.131ZM1837.87 879.033C1839.07 879.033 1840.01 878.472 1840.68 877.348C1841.35 876.209 1841.68 874.47 1841.68 872.131C1841.68 870.145 1841.47 868.606 1841.04 867.513L1835.32 877.833C1835.94 878.633 1836.79 879.033 1837.87 879.033Z" fill="url(#paint63_linear_167_179)"/>
<path d="M1839.41 905.233H1843.2V906.456H1833.38V905.233H1837.77V892.258L1833.59 894.498L1832.87 893.459L1838.02 890.596H1839.41V905.233Z" fill="url(#paint64_linear_167_179)"/>
<path d="M1837.87 916.749C1839.71 916.749 1841.1 917.449 1842.04 918.85C1843.01 920.235 1843.49 922.251 1843.49 924.899C1843.49 927.546 1843.01 929.57 1842.04 930.97C1841.1 932.371 1839.71 933.071 1837.87 933.071C1836.05 933.071 1834.66 932.371 1833.69 930.97C1832.73 929.57 1832.25 927.546 1832.25 924.899C1832.25 922.267 1832.73 920.251 1833.69 918.85C1834.66 917.449 1836.05 916.749 1837.87 916.749ZM1834.08 924.899C1834.08 926.776 1834.27 928.246 1834.65 929.308L1840.37 919.081C1839.77 918.358 1838.93 917.996 1837.87 917.996C1836.68 917.996 1835.76 918.565 1835.09 919.704C1834.42 920.828 1834.08 922.559 1834.08 924.899ZM1837.87 931.801C1839.07 931.801 1840.01 931.239 1840.68 930.116C1841.35 928.977 1841.68 927.238 1841.68 924.899C1841.68 922.913 1841.47 921.374 1841.04 920.281L1835.32 930.601C1835.94 931.401 1836.79 931.801 1837.87 931.801Z" fill="url(#paint65_linear_167_179)"/>
<path d="M1839.41 958.001H1843.2V959.224H1833.38V958.001H1837.77V945.026L1833.59 947.266L1832.87 946.227L1838.02 943.364H1839.41V958.001Z" fill="url(#paint66_linear_167_179)"/>
<path d="M1837.87 969.517C1839.71 969.517 1841.1 970.217 1842.04 971.618C1843.01 973.003 1843.49 975.019 1843.49 977.666C1843.49 980.314 1843.01 982.337 1842.04 983.738C1841.1 985.139 1839.71 985.839 1837.87 985.839C1836.05 985.839 1834.66 985.139 1833.69 983.738C1832.73 982.337 1832.25 980.314 1832.25 977.666C1832.25 975.035 1832.73 973.018 1833.69 971.618C1834.66 970.217 1836.05 969.517 1837.87 969.517ZM1834.08 977.666C1834.08 979.544 1834.27 981.014 1834.65 982.076L1840.37 971.849C1839.77 971.125 1838.93 970.764 1837.87 970.764C1836.68 970.764 1835.76 971.333 1835.09 972.472C1834.42 973.596 1834.08 975.327 1834.08 977.666ZM1837.87 984.569C1839.07 984.569 1840.01 984.007 1840.68 982.884C1841.35 981.745 1841.68 980.006 1841.68 977.666C1841.68 975.681 1841.47 974.142 1841.04 973.049L1835.32 983.369C1835.94 984.169 1836.79 984.569 1837.87 984.569Z" fill="url(#paint67_linear_167_179)"/>
<path d="M1837.87 995.901C1839.71 995.901 1841.1 996.601 1842.04 998.002C1843.01 999.387 1843.49 1001.4 1843.49 1004.05C1843.49 1006.7 1843.01 1008.72 1842.04 1010.12C1841.1 1011.52 1839.71 1012.22 1837.87 1012.22C1836.05 1012.22 1834.66 1011.52 1833.69 1010.12C1832.73 1008.72 1832.25 1006.7 1832.25 1004.05C1832.25 1001.42 1832.73 999.402 1833.69 998.002C1834.66 996.601 1836.05 995.901 1837.87 995.901ZM1834.08 1004.05C1834.08 1005.93 1834.27 1007.4 1834.65 1008.46L1840.37 998.233C1839.77 997.509 1838.93 997.148 1837.87 997.148C1836.68 997.148 1835.76 997.717 1835.09 998.856C1834.42 999.98 1834.08 1001.71 1834.08 1004.05ZM1837.87 1010.95C1839.07 1010.95 1840.01 1010.39 1840.68 1009.27C1841.35 1008.13 1841.68 1006.39 1841.68 1004.05C1841.68 1002.06 1841.47 1000.53 1841.04 999.433L1835.32 1009.75C1835.94 1010.55 1836.79 1010.95 1837.87 1010.95Z" fill="url(#paint68_linear_167_179)"/>
<path d="M1839.41 1037.15H1843.2V1038.38H1833.38V1037.15H1837.77V1024.18L1833.59 1026.42L1832.87 1025.38L1838.02 1022.52H1839.41V1037.15Z" fill="url(#paint69_linear_167_179)"/>
<path d="M1837.87 1048.67C1839.71 1048.67 1841.1 1049.37 1842.04 1050.77C1843.01 1052.15 1843.49 1054.17 1843.49 1056.82C1843.49 1059.47 1843.01 1061.49 1842.04 1062.89C1841.1 1064.29 1839.71 1064.99 1837.87 1064.99C1836.05 1064.99 1834.66 1064.29 1833.69 1062.89C1832.73 1061.49 1832.25 1059.47 1832.25 1056.82C1832.25 1054.19 1832.73 1052.17 1833.69 1050.77C1834.66 1049.37 1836.05 1048.67 1837.87 1048.67ZM1834.08 1056.82C1834.08 1058.7 1834.27 1060.17 1834.65 1061.23L1840.37 1051C1839.77 1050.28 1838.93 1049.92 1837.87 1049.92C1836.68 1049.92 1835.76 1050.49 1835.09 1051.62C1834.42 1052.75 1834.08 1054.48 1834.08 1056.82ZM1837.87 1063.72C1839.07 1063.72 1840.01 1063.16 1840.68 1062.04C1841.35 1060.9 1841.68 1059.16 1841.68 1056.82C1841.68 1054.83 1841.47 1053.29 1841.04 1052.2L1835.32 1062.52C1835.94 1063.32 1836.79 1063.72 1837.87 1063.72Z" fill="url(#paint70_linear_167_179)"/>
<path d="M1839.41 1089.92H1843.2V1091.14H1833.38V1089.92H1837.77V1076.95L1833.59 1079.19L1832.87 1078.15L1838.02 1075.28H1839.41V1089.92Z" fill="url(#paint71_linear_167_179)"/>
<path d="M1839.41 1116.3H1843.2V1117.53H1833.38V1116.3H1837.77V1103.33L1833.59 1105.57L1832.87 1104.53L1838.02 1101.67H1839.41V1116.3Z" fill="url(#paint72_linear_167_179)"/>
<path d="M1766.08 811.213C1767.92 811.213 1769.31 811.914 1770.26 813.314C1771.22 814.699 1771.7 816.716 1771.7 819.363C1771.7 822.01 1771.22 824.034 1770.26 825.434C1769.31 826.835 1767.92 827.535 1766.08 827.535C1764.26 827.535 1762.87 826.835 1761.91 825.434C1760.94 824.034 1760.46 822.01 1760.46 819.363C1760.46 816.731 1760.94 814.715 1761.91 813.314C1762.87 811.914 1764.26 811.213 1766.08 811.213ZM1762.29 819.363C1762.29 821.24 1762.48 822.71 1762.86 823.772L1768.58 813.545C1767.98 812.822 1767.15 812.46 1766.08 812.46C1764.9 812.46 1763.97 813.029 1763.3 814.168C1762.63 815.292 1762.29 817.023 1762.29 819.363ZM1766.08 826.265C1767.28 826.265 1768.22 825.704 1768.89 824.58C1769.56 823.441 1769.89 821.702 1769.89 819.363C1769.89 817.377 1769.68 815.838 1769.25 814.746L1763.53 825.065C1764.15 825.865 1765 826.265 1766.08 826.265Z" fill="url(#paint73_linear_167_179)"/>
<path d="M1766.08 837.597C1767.92 837.597 1769.31 838.298 1770.26 839.698C1771.22 841.083 1771.7 843.099 1771.7 845.747C1771.7 848.394 1771.22 850.418 1770.26 851.818C1769.31 853.219 1767.92 853.919 1766.08 853.919C1764.26 853.919 1762.87 853.219 1761.91 851.818C1760.94 850.418 1760.46 848.394 1760.46 845.747C1760.46 843.115 1760.94 841.099 1761.91 839.698C1762.87 838.298 1764.26 837.597 1766.08 837.597ZM1762.29 845.747C1762.29 847.624 1762.48 849.094 1762.86 850.156L1768.58 839.929C1767.98 839.206 1767.15 838.844 1766.08 838.844C1764.9 838.844 1763.97 839.413 1763.3 840.552C1762.63 841.676 1762.29 843.407 1762.29 845.747ZM1766.08 852.649C1767.28 852.649 1768.22 852.088 1768.89 850.964C1769.56 849.825 1769.89 848.086 1769.89 845.747C1769.89 843.761 1769.68 842.222 1769.25 841.129L1763.53 851.449C1764.15 852.249 1765 852.649 1766.08 852.649Z" fill="url(#paint74_linear_167_179)"/>
<path d="M1767.63 878.849H1771.42V880.072H1761.6V878.849H1765.98V865.874L1761.8 868.114L1761.08 867.075L1766.24 864.212H1767.63V878.849Z" fill="url(#paint75_linear_167_179)"/>
<path d="M1766.08 890.365C1767.92 890.365 1769.31 891.066 1770.26 892.466C1771.22 893.851 1771.7 895.867 1771.7 898.515C1771.7 901.162 1771.22 903.186 1770.26 904.586C1769.31 905.987 1767.92 906.687 1766.08 906.687C1764.26 906.687 1762.87 905.987 1761.91 904.586C1760.94 903.186 1760.46 901.162 1760.46 898.515C1760.46 895.883 1760.94 893.867 1761.91 892.466C1762.87 891.066 1764.26 890.365 1766.08 890.365ZM1762.29 898.515C1762.29 900.392 1762.48 901.862 1762.86 902.924L1768.58 892.697C1767.98 891.974 1767.15 891.612 1766.08 891.612C1764.9 891.612 1763.97 892.181 1763.3 893.32C1762.63 894.444 1762.29 896.175 1762.29 898.515ZM1766.08 905.417C1767.28 905.417 1768.22 904.856 1768.89 903.732C1769.56 902.593 1769.89 900.854 1769.89 898.515C1769.89 896.529 1769.68 894.99 1769.25 893.897L1763.53 904.217C1764.15 905.017 1765 905.417 1766.08 905.417Z" fill="url(#paint76_linear_167_179)"/>
<path d="M1767.63 931.617H1771.42V932.84H1761.6V931.617H1765.98V918.642L1761.8 920.882L1761.08 919.843L1766.24 916.98H1767.63V931.617Z" fill="url(#paint77_linear_167_179)"/>
<path d="M1767.63 958.001H1771.42V959.224H1761.6V958.001H1765.98V945.026L1761.8 947.266L1761.08 946.227L1766.24 943.364H1767.63V958.001Z" fill="url(#paint78_linear_167_179)"/>
<path d="M1815.49 773.313H1819.27V774.536H1809.46V773.313H1813.84V760.339L1809.66 762.578L1808.94 761.539L1814.09 758.676H1815.49V773.313Z" fill="url(#paint79_linear_167_179)"/>
<path d="M1813.94 784.829C1815.78 784.829 1817.17 785.53 1818.11 786.93C1819.08 788.315 1819.56 790.332 1819.56 792.979C1819.56 795.626 1819.08 797.65 1818.11 799.05C1817.17 800.451 1815.78 801.151 1813.94 801.151C1812.12 801.151 1810.73 800.451 1809.76 799.05C1808.8 797.65 1808.32 795.626 1808.32 792.979C1808.32 790.347 1808.8 788.331 1809.76 786.93C1810.73 785.53 1812.12 784.829 1813.94 784.829ZM1810.15 792.979C1810.15 794.856 1810.34 796.326 1810.72 797.388L1816.44 787.161C1815.84 786.438 1815 786.076 1813.94 786.076C1812.75 786.076 1811.83 786.646 1811.16 787.784C1810.49 788.908 1810.15 790.639 1810.15 792.979ZM1813.94 799.881C1815.14 799.881 1816.08 799.32 1816.75 798.196C1817.42 797.057 1817.75 795.318 1817.75 792.979C1817.75 790.993 1817.54 789.454 1817.11 788.362L1811.39 798.681C1812.01 799.481 1812.86 799.881 1813.94 799.881Z" fill="url(#paint80_linear_167_179)"/>
<path d="M1815.49 826.081H1819.27V827.304H1809.46V826.081H1813.84V813.106L1809.66 815.346L1808.94 814.307L1814.09 811.444H1815.49V826.081Z" fill="url(#paint81_linear_167_179)"/>
<path d="M1815.49 852.465H1819.27V853.688H1809.46V852.465H1813.84V839.49L1809.66 841.73L1808.94 840.691L1814.09 837.828H1815.49V852.465Z" fill="url(#paint82_linear_167_179)"/>
<path d="M1813.94 863.981C1815.78 863.981 1817.17 864.682 1818.11 866.082C1819.08 867.467 1819.56 869.483 1819.56 872.131C1819.56 874.778 1819.08 876.802 1818.11 878.202C1817.17 879.603 1815.78 880.303 1813.94 880.303C1812.12 880.303 1810.73 879.603 1809.76 878.202C1808.8 876.802 1808.32 874.778 1808.32 872.131C1808.32 869.499 1808.8 867.483 1809.76 866.082C1810.73 864.682 1812.12 863.981 1813.94 863.981ZM1810.15 872.131C1810.15 874.008 1810.34 875.478 1810.72 876.54L1816.44 866.313C1815.84 865.59 1815 865.228 1813.94 865.228C1812.75 865.228 1811.83 865.797 1811.16 866.936C1810.49 868.06 1810.15 869.791 1810.15 872.131ZM1813.94 879.033C1815.14 879.033 1816.08 878.472 1816.75 877.348C1817.42 876.209 1817.75 874.47 1817.75 872.131C1817.75 870.145 1817.54 868.606 1817.11 867.513L1811.39 877.833C1812.01 878.633 1812.86 879.033 1813.94 879.033Z" fill="url(#paint83_linear_167_179)"/>
<path d="M1815.49 905.233H1819.27V906.456H1809.46V905.233H1813.84V892.258L1809.66 894.498L1808.94 893.459L1814.09 890.596H1815.49V905.233Z" fill="url(#paint84_linear_167_179)"/>
<path d="M1815.49 931.617H1819.27V932.84H1809.46V931.617H1813.84V918.642L1809.66 920.882L1808.94 919.843L1814.09 916.98H1815.49V931.617Z" fill="url(#paint85_linear_167_179)"/>
<path d="M1813.94 943.133C1815.78 943.133 1817.17 943.833 1818.11 945.234C1819.08 946.619 1819.56 948.635 1819.56 951.282C1819.56 953.93 1819.08 955.954 1818.11 957.354C1817.17 958.755 1815.78 959.455 1813.94 959.455C1812.12 959.455 1810.73 958.755 1809.76 957.354C1808.8 955.954 1808.32 953.93 1808.32 951.282C1808.32 948.651 1808.8 946.635 1809.76 945.234C1810.73 943.833 1812.12 943.133 1813.94 943.133ZM1810.15 951.282C1810.15 953.16 1810.34 954.63 1810.72 955.692L1816.44 945.465C1815.84 944.741 1815 944.38 1813.94 944.38C1812.75 944.38 1811.83 944.949 1811.16 946.088C1810.49 947.212 1810.15 948.943 1810.15 951.282ZM1813.94 958.185C1815.14 958.185 1816.08 957.623 1816.75 956.5C1817.42 955.361 1817.75 953.622 1817.75 951.282C1817.75 949.297 1817.54 947.758 1817.11 946.665L1811.39 956.985C1812.01 957.785 1812.86 958.185 1813.94 958.185Z" fill="url(#paint86_linear_167_179)"/>
<path d="M1815.49 984.384H1819.27V985.608H1809.46V984.384H1813.84V971.41L1809.66 973.649L1808.94 972.611L1814.09 969.748H1815.49V984.384Z" fill="url(#paint87_linear_167_179)"/>
<path d="M1813.94 995.901C1815.78 995.901 1817.17 996.601 1818.11 998.002C1819.08 999.387 1819.56 1001.4 1819.56 1004.05C1819.56 1006.7 1819.08 1008.72 1818.11 1010.12C1817.17 1011.52 1815.78 1012.22 1813.94 1012.22C1812.12 1012.22 1810.73 1011.52 1809.76 1010.12C1808.8 1008.72 1808.32 1006.7 1808.32 1004.05C1808.32 1001.42 1808.8 999.402 1809.76 998.002C1810.73 996.601 1812.12 995.901 1813.94 995.901ZM1810.15 1004.05C1810.15 1005.93 1810.34 1007.4 1810.72 1008.46L1816.44 998.233C1815.84 997.509 1815 997.148 1813.94 997.148C1812.75 997.148 1811.83 997.717 1811.16 998.856C1810.49 999.98 1810.15 1001.71 1810.15 1004.05ZM1813.94 1010.95C1815.14 1010.95 1816.08 1010.39 1816.75 1009.27C1817.42 1008.13 1817.75 1006.39 1817.75 1004.05C1817.75 1002.06 1817.54 1000.53 1817.11 999.433L1811.39 1009.75C1812.01 1010.55 1812.86 1010.95 1813.94 1010.95Z" fill="url(#paint88_linear_167_179)"/>
<path d="M1861.8 758.445C1863.64 758.445 1865.03 759.146 1865.97 760.546C1866.93 761.931 1867.42 763.948 1867.42 766.595C1867.42 769.242 1866.93 771.266 1865.97 772.666C1865.03 774.067 1863.64 774.767 1861.8 774.767C1859.98 774.767 1858.59 774.067 1857.62 772.666C1856.66 771.266 1856.18 769.242 1856.18 766.595C1856.18 763.963 1856.66 761.947 1857.62 760.546C1858.59 759.146 1859.98 758.445 1861.8 758.445ZM1858.01 766.595C1858.01 768.472 1858.2 769.942 1858.58 771.004L1864.3 760.777C1863.7 760.054 1862.86 759.692 1861.8 759.692C1860.61 759.692 1859.68 760.262 1859.01 761.4C1858.34 762.524 1858.01 764.255 1858.01 766.595ZM1861.8 773.498C1863 773.498 1863.94 772.936 1864.61 771.812C1865.28 770.673 1865.61 768.934 1865.61 766.595C1865.61 764.609 1865.4 763.07 1864.97 761.978L1859.25 772.297C1859.87 773.097 1860.72 773.498 1861.8 773.498Z" fill="url(#paint89_linear_167_179)"/>
<path d="M1863.34 799.697H1867.13V800.92H1857.31V799.697H1861.69V786.722L1857.52 788.962L1856.8 787.923L1861.95 785.06H1863.34V799.697Z" fill="url(#paint90_linear_167_179)"/>
<path d="M1863.34 826.081H1867.13V827.304H1857.31V826.081H1861.69V813.106L1857.52 815.346L1856.8 814.307L1861.95 811.444H1863.34V826.081Z" fill="url(#paint91_linear_167_179)"/>
<path d="M1861.8 837.597C1863.64 837.597 1865.03 838.298 1865.97 839.698C1866.93 841.083 1867.42 843.099 1867.42 845.747C1867.42 848.394 1866.93 850.418 1865.97 851.818C1865.03 853.219 1863.64 853.919 1861.8 853.919C1859.98 853.919 1858.59 853.219 1857.62 851.818C1856.66 850.418 1856.18 848.394 1856.18 845.747C1856.18 843.115 1856.66 841.099 1857.62 839.698C1858.59 838.298 1859.98 837.597 1861.8 837.597ZM1858.01 845.747C1858.01 847.624 1858.2 849.094 1858.58 850.156L1864.3 839.929C1863.7 839.206 1862.86 838.844 1861.8 838.844C1860.61 838.844 1859.68 839.413 1859.01 840.552C1858.34 841.676 1858.01 843.407 1858.01 845.747ZM1861.8 852.649C1863 852.649 1863.94 852.088 1864.61 850.964C1865.28 849.825 1865.61 848.086 1865.61 845.747C1865.61 843.761 1865.4 842.222 1864.97 841.129L1859.25 851.449C1859.87 852.249 1860.72 852.649 1861.8 852.649Z" fill="url(#paint92_linear_167_179)"/>
<path d="M1861.8 863.981C1863.64 863.981 1865.03 864.682 1865.97 866.082C1866.93 867.467 1867.42 869.483 1867.42 872.131C1867.42 874.778 1866.93 876.802 1865.97 878.202C1865.03 879.603 1863.64 880.303 1861.8 880.303C1859.98 880.303 1858.59 879.603 1857.62 878.202C1856.66 876.802 1856.18 874.778 1856.18 872.131C1856.18 869.499 1856.66 867.483 1857.62 866.082C1858.59 864.682 1859.98 863.981 1861.8 863.981ZM1858.01 872.131C1858.01 874.008 1858.2 875.478 1858.58 876.54L1864.3 866.313C1863.7 865.59 1862.86 865.228 1861.8 865.228C1860.61 865.228 1859.68 865.797 1859.01 866.936C1858.34 868.06 1858.01 869.791 1858.01 872.131ZM1861.8 879.033C1863 879.033 1863.94 878.472 1864.61 877.348C1865.28 876.209 1865.61 874.47 1865.61 872.131C1865.61 870.145 1865.4 868.606 1864.97 867.513L1859.25 877.833C1859.87 878.633 1860.72 879.033 1861.8 879.033Z" fill="url(#paint93_linear_167_179)"/>
</g>
<defs>
<filter id="filter0_f_167_179" x="0.809998" y="0.809998" width="2528.38" height="1610.67" filterUnits="userSpaceOnUse" color-interpolation-filters="sRGB">
<feFlood flood-opacity="0" result="BackgroundImageFix"/>
<feBlend mode="normal" in="SourceGraphic" in2="BackgroundImageFix" result="shape"/>
<feGaussianBlur stdDeviation="200.095" result="effect1_foregroundBlur_167_179"/>
</filter>
<linearGradient id="paint0_linear_167_179" x1="672.249" y1="1079.33" x2="672.249" y2="1439.77" gradientUnits="userSpaceOnUse">
<stop stop-color="#F7DD43"/>
<stop offset="1" stop-color="#F7DD43" stop-opacity="0"/>
</linearGradient>
<linearGradient id="paint1_linear_167_179" x1="672.249" y1="1079.33" x2="672.249" y2="1439.77" gradientUnits="userSpaceOnUse">
<stop stop-color="#F7DD43"/>
<stop offset="1" stop-color="#F7DD43" stop-opacity="0"/>
</linearGradient>
<linearGradient id="paint2_linear_167_179" x1="672.249" y1="1079.33" x2="672.249" y2="1439.77" gradientUnits="userSpaceOnUse">
<stop stop-color="#F7DD43"/>
<stop offset="1" stop-color="#F7DD43" stop-opacity="0"/>
</linearGradient>
<linearGradient id="paint3_linear_167_179" x1="672.249" y1="1079.33" x2="672.249" y2="1439.77" gradientUnits="userSpaceOnUse">
<stop stop-color="#F7DD43"/>
<stop offset="1" stop-color="#F7DD43" stop-opacity="0"/>
</linearGradient>
<linearGradient id="paint4_linear_167_179" x1="672.249" y1="1079.33" x2="672.249" y2="1439.77" gradientUnits="userSpaceOnUse">
<stop stop-color="#F7DD43"/>
<stop offset="1" stop-color="#F7DD43" stop-opacity="0"/>
</linearGradient>
<linearGradient id="paint5_linear_167_179" x1="672.249" y1="1079.33" x2="672.249" y2="1439.77" gradientUnits="userSpaceOnUse">
<stop stop-color="#F7DD43"/>
<stop offset="1" stop-color="#F7DD43" stop-opacity="0"/>
</linearGradient>
<linearGradient id="paint6_linear_167_179" x1="672.249" y1="1079.33" x2="672.249" y2="1439.77" gradientUnits="userSpaceOnUse">
<stop stop-color="#F7DD43"/>
<stop offset="1" stop-color="#F7DD43" stop-opacity="0"/>
</linearGradient>
<linearGradient id="paint7_linear_167_179" x1="672.249" y1="1079.33" x2="672.249" y2="1439.77" gradientUnits="userSpaceOnUse">
<stop stop-color="#F7DD43"/>
<stop offset="1" stop-color="#F7DD43" stop-opacity="0"/>
</linearGradient>
<linearGradient id="paint8_linear_167_179" x1="672.249" y1="1079.33" x2="672.249" y2="1439.77" gradientUnits="userSpaceOnUse">
<stop stop-color="#F7DD43"/>
<stop offset="1" stop-color="#F7DD43" stop-opacity="0"/>
</linearGradient>
<linearGradient id="paint9_linear_167_179" x1="672.249" y1="1079.33" x2="672.249" y2="1439.77" gradientUnits="userSpaceOnUse">
<stop stop-color="#F7DD43"/>
<stop offset="1" stop-color="#F7DD43" stop-opacity="0"/>
</linearGradient>
<linearGradient id="paint10_linear_167_179" x1="672.249" y1="1079.33" x2="672.249" y2="1439.77" gradientUnits="userSpaceOnUse">
<stop stop-color="#F7DD43"/>
<stop offset="1" stop-color="#F7DD43" stop-opacity="0"/>
</linearGradient>
<linearGradient id="paint11_linear_167_179" x1="672.249" y1="1079.33" x2="672.249" y2="1439.77" gradientUnits="userSpaceOnUse">
<stop stop-color="#F7DD43"/>
<stop offset="1" stop-color="#F7DD43" stop-opacity="0"/>
</linearGradient>
<linearGradient id="paint12_linear_167_179" x1="672.249" y1="1079.33" x2="672.249" y2="1439.77" gradientUnits="userSpaceOnUse">
<stop stop-color="#F7DD43"/>
<stop offset="1" stop-color="#F7DD43" stop-opacity="0"/>
</linearGradient>
<linearGradient id="paint13_linear_167_179" x1="672.249" y1="1079.33" x2="672.249" y2="1439.77" gradientUnits="userSpaceOnUse">
<stop stop-color="#F7DD43"/>
<stop offset="1" stop-color="#F7DD43" stop-opacity="0"/>
</linearGradient>
<linearGradient id="paint14_linear_167_179" x1="672.249" y1="1079.33" x2="672.249" y2="1439.77" gradientUnits="userSpaceOnUse">
<stop stop-color="#F7DD43"/>
<stop offset="1" stop-color="#F7DD43" stop-opacity="0"/>
</linearGradient>
<linearGradient id="paint15_linear_167_179" x1="672.249" y1="1079.33" x2="672.249" y2="1439.77" gradientUnits="userSpaceOnUse">
<stop stop-color="#F7DD43"/>
<stop offset="1" stop-color="#F7DD43" stop-opacity="0"/>
</linearGradient>
<linearGradient id="paint16_linear_167_179" x1="672.249" y1="1079.33" x2="672.249" y2="1439.77" gradientUnits="userSpaceOnUse">
<stop stop-color="#F7DD43"/>
<stop offset="1" stop-color="#F7DD43" stop-opacity="0"/>
</linearGradient>
<linearGradient id="paint17_linear_167_179" x1="672.249" y1="1079.33" x2="672.249" y2="1439.77" gradientUnits="userSpaceOnUse">
<stop stop-color="#F7DD43"/>
<stop offset="1" stop-color="#F7DD43" stop-opacity="0"/>
</linearGradient>
<linearGradient id="paint18_linear_167_179" x1="672.249" y1="1079.33" x2="672.249" y2="1439.77" gradientUnits="userSpaceOnUse">
<stop stop-color="#F7DD43"/>
<stop offset="1" stop-color="#F7DD43" stop-opacity="0"/>
</linearGradient>
<linearGradient id="paint19_linear_167_179" x1="672.249" y1="1079.33" x2="672.249" y2="1439.77" gradientUnits="userSpaceOnUse">
<stop stop-color="#F7DD43"/>
<stop offset="1" stop-color="#F7DD43" stop-opacity="0"/>
</linearGradient>
<linearGradient id="paint20_linear_167_179" x1="672.249" y1="1079.33" x2="672.249" y2="1439.77" gradientUnits="userSpaceOnUse">
<stop stop-color="#F7DD43"/>
<stop offset="1" stop-color="#F7DD43" stop-opacity="0"/>
</linearGradient>
<linearGradient id="paint21_linear_167_179" x1="672.249" y1="1079.33" x2="672.249" y2="1439.77" gradientUnits="userSpaceOnUse">
<stop stop-color="#F7DD43"/>
<stop offset="1" stop-color="#F7DD43" stop-opacity="0"/>
</linearGradient>
<linearGradient id="paint22_linear_167_179" x1="672.249" y1="1079.33" x2="672.249" y2="1439.77" gradientUnits="userSpaceOnUse">
<stop stop-color="#F7DD43"/>
<stop offset="1" stop-color="#F7DD43" stop-opacity="0"/>
</linearGradient>
<linearGradient id="paint23_linear_167_179" x1="672.249" y1="1079.33" x2="672.249" y2="1439.77" gradientUnits="userSpaceOnUse">
<stop stop-color="#F7DD43"/>
<stop offset="1" stop-color="#F7DD43" stop-opacity="0"/>
</linearGradient>
<linearGradient id="paint24_linear_167_179" x1="672.249" y1="1079.33" x2="672.249" y2="1439.77" gradientUnits="userSpaceOnUse">
<stop stop-color="#F7DD43"/>
<stop offset="1" stop-color="#F7DD43" stop-opacity="0"/>
</linearGradient>
<linearGradient id="paint25_linear_167_179" x1="672.249" y1="1079.33" x2="672.249" y2="1439.77" gradientUnits="userSpaceOnUse">
<stop stop-color="#F7DD43"/>
<stop offset="1" stop-color="#F7DD43" stop-opacity="0"/>
</linearGradient>
<linearGradient id="paint26_linear_167_179" x1="672.249" y1="1079.33" x2="672.249" y2="1439.77" gradientUnits="userSpaceOnUse">
<stop stop-color="#F7DD43"/>
<stop offset="1" stop-color="#F7DD43" stop-opacity="0"/>
</linearGradient>
<linearGradient id="paint27_linear_167_179" x1="672.249" y1="1079.33" x2="672.249" y2="1439.77" gradientUnits="userSpaceOnUse">
<stop stop-color="#F7DD43"/>
<stop offset="1" stop-color="#F7DD43" stop-opacity="0"/>
</linearGradient>
<linearGradient id="paint28_linear_167_179" x1="672.249" y1="1079.33" x2="672.249" y2="1439.77" gradientUnits="userSpaceOnUse">
<stop stop-color="#F7DD43"/>
<stop offset="1" stop-color="#F7DD43" stop-opacity="0"/>
</linearGradient>
<linearGradient id="paint29_linear_167_179" x1="672.249" y1="1079.33" x2="672.249" y2="1439.77" gradientUnits="userSpaceOnUse">
<stop stop-color="#F7DD43"/>
<stop offset="1" stop-color="#F7DD43" stop-opacity="0"/>
</linearGradient>
<linearGradient id="paint30_linear_167_179" x1="672.249" y1="1079.33" x2="672.249" y2="1439.77" gradientUnits="userSpaceOnUse">
<stop stop-color="#F7DD43"/>
<stop offset="1" stop-color="#F7DD43" stop-opacity="0"/>
</linearGradient>
<linearGradient id="paint31_linear_167_179" x1="672.249" y1="1079.33" x2="672.249" y2="1439.77" gradientUnits="userSpaceOnUse">
<stop stop-color="#F7DD43"/>
<stop offset="1" stop-color="#F7DD43" stop-opacity="0"/>
</linearGradient>
<linearGradient id="paint32_linear_167_179" x1="672.249" y1="1079.33" x2="672.249" y2="1439.77" gradientUnits="userSpaceOnUse">
<stop stop-color="#F7DD43"/>
<stop offset="1" stop-color="#F7DD43" stop-opacity="0"/>
</linearGradient>
<linearGradient id="paint33_linear_167_179" x1="672.249" y1="1079.33" x2="672.249" y2="1439.77" gradientUnits="userSpaceOnUse">
<stop stop-color="#F7DD43"/>
<stop offset="1" stop-color="#F7DD43" stop-opacity="0"/>
</linearGradient>
<linearGradient id="paint34_linear_167_179" x1="672.249" y1="1079.33" x2="672.249" y2="1439.77" gradientUnits="userSpaceOnUse">
<stop stop-color="#F7DD43"/>
<stop offset="1" stop-color="#F7DD43" stop-opacity="0"/>
</linearGradient>
<linearGradient id="paint35_linear_167_179" x1="672.249" y1="1079.33" x2="672.249" y2="1439.77" gradientUnits="userSpaceOnUse">
<stop stop-color="#F7DD43"/>
<stop offset="1" stop-color="#F7DD43" stop-opacity="0"/>
</linearGradient>
<linearGradient id="paint36_linear_167_179" x1="672.249" y1="1079.33" x2="672.249" y2="1439.77" gradientUnits="userSpaceOnUse">
<stop stop-color="#F7DD43"/>
<stop offset="1" stop-color="#F7DD43" stop-opacity="0"/>
</linearGradient>
<linearGradient id="paint37_linear_167_179" x1="672.249" y1="1079.33" x2="672.249" y2="1439.77" gradientUnits="userSpaceOnUse">
<stop stop-color="#F7DD43"/>
<stop offset="1" stop-color="#F7DD43" stop-opacity="0"/>
</linearGradient>
<linearGradient id="paint38_linear_167_179" x1="672.249" y1="1079.33" x2="672.249" y2="1439.77" gradientUnits="userSpaceOnUse">
<stop stop-color="#F7DD43"/>
<stop offset="1" stop-color="#F7DD43" stop-opacity="0"/>
</linearGradient>
<linearGradient id="paint39_linear_167_179" x1="672.249" y1="1079.33" x2="672.249" y2="1439.77" gradientUnits="userSpaceOnUse">
<stop stop-color="#F7DD43"/>
<stop offset="1" stop-color="#F7DD43" stop-opacity="0"/>
</linearGradient>
<linearGradient id="paint40_linear_167_179" x1="672.249" y1="1079.33" x2="672.249" y2="1439.77" gradientUnits="userSpaceOnUse">
<stop stop-color="#F7DD43"/>
<stop offset="1" stop-color="#F7DD43" stop-opacity="0"/>
</linearGradient>
<linearGradient id="paint41_linear_167_179" x1="672.249" y1="1079.33" x2="672.249" y2="1439.77" gradientUnits="userSpaceOnUse">
<stop stop-color="#F7DD43"/>
<stop offset="1" stop-color="#F7DD43" stop-opacity="0"/>
</linearGradient>
<linearGradient id="paint42_linear_167_179" x1="672.249" y1="1079.33" x2="672.249" y2="1439.77" gradientUnits="userSpaceOnUse">
<stop stop-color="#F7DD43"/>
<stop offset="1" stop-color="#F7DD43" stop-opacity="0"/>
</linearGradient>
<linearGradient id="paint43_linear_167_179" x1="672.249" y1="1079.33" x2="672.249" y2="1439.77" gradientUnits="userSpaceOnUse">
<stop stop-color="#F7DD43"/>
<stop offset="1" stop-color="#F7DD43" stop-opacity="0"/>
</linearGradient>
<linearGradient id="paint44_linear_167_179" x1="672.249" y1="1079.33" x2="672.249" y2="1439.77" gradientUnits="userSpaceOnUse">
<stop stop-color="#F7DD43"/>
<stop offset="1" stop-color="#F7DD43" stop-opacity="0"/>
</linearGradient>
<linearGradient id="paint45_linear_167_179" x1="672.249" y1="1079.33" x2="672.249" y2="1439.77" gradientUnits="userSpaceOnUse">
<stop stop-color="#F7DD43"/>
<stop offset="1" stop-color="#F7DD43" stop-opacity="0"/>
</linearGradient>
<linearGradient id="paint46_linear_167_179" x1="672.249" y1="1079.33" x2="672.249" y2="1439.77" gradientUnits="userSpaceOnUse">
<stop stop-color="#F7DD43"/>
<stop offset="1" stop-color="#F7DD43" stop-opacity="0"/>
</linearGradient>
<linearGradient id="paint47_linear_167_179" x1="1813.94" y1="732.062" x2="1813.94" y2="1077.96" gradientUnits="userSpaceOnUse">
<stop stop-color="#F7DD43"/>
<stop offset="1" stop-color="#F7DD43" stop-opacity="0"/>
</linearGradient>
<linearGradient id="paint48_linear_167_179" x1="1813.94" y1="732.062" x2="1813.94" y2="1077.96" gradientUnits="userSpaceOnUse">
<stop stop-color="#F7DD43"/>
<stop offset="1" stop-color="#F7DD43" stop-opacity="0"/>
</linearGradient>
<linearGradient id="paint49_linear_167_179" x1="1813.94" y1="732.062" x2="1813.94" y2="1077.96" gradientUnits="userSpaceOnUse">
<stop stop-color="#F7DD43"/>
<stop offset="1" stop-color="#F7DD43" stop-opacity="0"/>
</linearGradient>
<linearGradient id="paint50_linear_167_179" x1="1813.94" y1="732.062" x2="1813.94" y2="1077.96" gradientUnits="userSpaceOnUse">
<stop stop-color="#F7DD43"/>
<stop offset="1" stop-color="#F7DD43" stop-opacity="0"/>
</linearGradient>
<linearGradient id="paint51_linear_167_179" x1="1813.94" y1="732.062" x2="1813.94" y2="1077.96" gradientUnits="userSpaceOnUse">
<stop stop-color="#F7DD43"/>
<stop offset="1" stop-color="#F7DD43" stop-opacity="0"/>
</linearGradient>
<linearGradient id="paint52_linear_167_179" x1="1813.94" y1="732.062" x2="1813.94" y2="1077.96" gradientUnits="userSpaceOnUse">
<stop stop-color="#F7DD43"/>
<stop offset="1" stop-color="#F7DD43" stop-opacity="0"/>
</linearGradient>
<linearGradient id="paint53_linear_167_179" x1="1813.94" y1="732.062" x2="1813.94" y2="1077.96" gradientUnits="userSpaceOnUse">
<stop stop-color="#F7DD43"/>
<stop offset="1" stop-color="#F7DD43" stop-opacity="0"/>
</linearGradient>
<linearGradient id="paint54_linear_167_179" x1="1813.94" y1="732.062" x2="1813.94" y2="1077.96" gradientUnits="userSpaceOnUse">
<stop stop-color="#F7DD43"/>
<stop offset="1" stop-color="#F7DD43" stop-opacity="0"/>
</linearGradient>
<linearGradient id="paint55_linear_167_179" x1="1813.94" y1="732.062" x2="1813.94" y2="1077.96" gradientUnits="userSpaceOnUse">
<stop stop-color="#F7DD43"/>
<stop offset="1" stop-color="#F7DD43" stop-opacity="0"/>
</linearGradient>
<linearGradient id="paint56_linear_167_179" x1="1813.94" y1="732.062" x2="1813.94" y2="1077.96" gradientUnits="userSpaceOnUse">
<stop stop-color="#F7DD43"/>
<stop offset="1" stop-color="#F7DD43" stop-opacity="0"/>
</linearGradient>
<linearGradient id="paint57_linear_167_179" x1="1813.94" y1="732.062" x2="1813.94" y2="1077.96" gradientUnits="userSpaceOnUse">
<stop stop-color="#F7DD43"/>
<stop offset="1" stop-color="#F7DD43" stop-opacity="0"/>
</linearGradient>
<linearGradient id="paint58_linear_167_179" x1="1813.94" y1="732.062" x2="1813.94" y2="1077.96" gradientUnits="userSpaceOnUse">
<stop stop-color="#F7DD43"/>
<stop offset="1" stop-color="#F7DD43" stop-opacity="0"/>
</linearGradient>
<linearGradient id="paint59_linear_167_179" x1="1813.94" y1="732.062" x2="1813.94" y2="1077.96" gradientUnits="userSpaceOnUse">
<stop stop-color="#F7DD43"/>
<stop offset="1" stop-color="#F7DD43" stop-opacity="0"/>
</linearGradient>
<linearGradient id="paint60_linear_167_179" x1="1813.94" y1="732.062" x2="1813.94" y2="1077.96" gradientUnits="userSpaceOnUse">
<stop stop-color="#F7DD43"/>
<stop offset="1" stop-color="#F7DD43" stop-opacity="0"/>
</linearGradient>
<linearGradient id="paint61_linear_167_179" x1="1813.94" y1="732.062" x2="1813.94" y2="1077.96" gradientUnits="userSpaceOnUse">
<stop stop-color="#F7DD43"/>
<stop offset="1" stop-color="#F7DD43" stop-opacity="0"/>
</linearGradient>
<linearGradient id="paint62_linear_167_179" x1="1813.94" y1="732.062" x2="1813.94" y2="1077.96" gradientUnits="userSpaceOnUse">
<stop stop-color="#F7DD43"/>
<stop offset="1" stop-color="#F7DD43" stop-opacity="0"/>
</linearGradient>
<linearGradient id="paint63_linear_167_179" x1="1813.94" y1="732.062" x2="1813.94" y2="1077.96" gradientUnits="userSpaceOnUse">
<stop stop-color="#F7DD43"/>
<stop offset="1" stop-color="#F7DD43" stop-opacity="0"/>
</linearGradient>
<linearGradient id="paint64_linear_167_179" x1="1813.94" y1="732.062" x2="1813.94" y2="1077.96" gradientUnits="userSpaceOnUse">
<stop stop-color="#F7DD43"/>
<stop offset="1" stop-color="#F7DD43" stop-opacity="0"/>
</linearGradient>
<linearGradient id="paint65_linear_167_179" x1="1813.94" y1="732.062" x2="1813.94" y2="1077.96" gradientUnits="userSpaceOnUse">
<stop stop-color="#F7DD43"/>
<stop offset="1" stop-color="#F7DD43" stop-opacity="0"/>
</linearGradient>
<linearGradient id="paint66_linear_167_179" x1="1813.94" y1="732.062" x2="1813.94" y2="1077.96" gradientUnits="userSpaceOnUse">
<stop stop-color="#F7DD43"/>
<stop offset="1" stop-color="#F7DD43" stop-opacity="0"/>
</linearGradient>
<linearGradient id="paint67_linear_167_179" x1="1813.94" y1="732.062" x2="1813.94" y2="1077.96" gradientUnits="userSpaceOnUse">
<stop stop-color="#F7DD43"/>
<stop offset="1" stop-color="#F7DD43" stop-opacity="0"/>
</linearGradient>
<linearGradient id="paint68_linear_167_179" x1="1813.94" y1="732.062" x2="1813.94" y2="1077.96" gradientUnits="userSpaceOnUse">
<stop stop-color="#F7DD43"/>
<stop offset="1" stop-color="#F7DD43" stop-opacity="0"/>
</linearGradient>
<linearGradient id="paint69_linear_167_179" x1="1813.94" y1="732.062" x2="1813.94" y2="1077.96" gradientUnits="userSpaceOnUse">
<stop stop-color="#F7DD43"/>
<stop offset="1" stop-color="#F7DD43" stop-opacity="0"/>
</linearGradient>
<linearGradient id="paint70_linear_167_179" x1="1813.94" y1="732.062" x2="1813.94" y2="1077.96" gradientUnits="userSpaceOnUse">
<stop stop-color="#F7DD43"/>
<stop offset="1" stop-color="#F7DD43" stop-opacity="0"/>
</linearGradient>
<linearGradient id="paint71_linear_167_179" x1="1813.94" y1="732.062" x2="1813.94" y2="1077.96" gradientUnits="userSpaceOnUse">
<stop stop-color="#F7DD43"/>
<stop offset="1" stop-color="#F7DD43" stop-opacity="0"/>
</linearGradient>
<linearGradient id="paint72_linear_167_179" x1="1813.94" y1="732.062" x2="1813.94" y2="1077.96" gradientUnits="userSpaceOnUse">
<stop stop-color="#F7DD43"/>
<stop offset="1" stop-color="#F7DD43" stop-opacity="0"/>
</linearGradient>
<linearGradient id="paint73_linear_167_179" x1="1813.94" y1="732.062" x2="1813.94" y2="1077.96" gradientUnits="userSpaceOnUse">
<stop stop-color="#F7DD43"/>
<stop offset="1" stop-color="#F7DD43" stop-opacity="0"/>
</linearGradient>
<linearGradient id="paint74_linear_167_179" x1="1813.94" y1="732.062" x2="1813.94" y2="1077.96" gradientUnits="userSpaceOnUse">
<stop stop-color="#F7DD43"/>
<stop offset="1" stop-color="#F7DD43" stop-opacity="0"/>
</linearGradient>
<linearGradient id="paint75_linear_167_179" x1="1813.94" y1="732.062" x2="1813.94" y2="1077.96" gradientUnits="userSpaceOnUse">
<stop stop-color="#F7DD43"/>
<stop offset="1" stop-color="#F7DD43" stop-opacity="0"/>
</linearGradient>
<linearGradient id="paint76_linear_167_179" x1="1813.94" y1="732.062" x2="1813.94" y2="1077.96" gradientUnits="userSpaceOnUse">
<stop stop-color="#F7DD43"/>
<stop offset="1" stop-color="#F7DD43" stop-opacity="0"/>
</linearGradient>
<linearGradient id="paint77_linear_167_179" x1="1813.94" y1="732.062" x2="1813.94" y2="1077.96" gradientUnits="userSpaceOnUse">
<stop stop-color="#F7DD43"/>
<stop offset="1" stop-color="#F7DD43" stop-opacity="0"/>
</linearGradient>
<linearGradient id="paint78_linear_167_179" x1="1813.94" y1="732.062" x2="1813.94" y2="1077.96" gradientUnits="userSpaceOnUse">
<stop stop-color="#F7DD43"/>
<stop offset="1" stop-color="#F7DD43" stop-opacity="0"/>
</linearGradient>
<linearGradient id="paint79_linear_167_179" x1="1813.94" y1="732.062" x2="1813.94" y2="1077.96" gradientUnits="userSpaceOnUse">
<stop stop-color="#F7DD43"/>
<stop offset="1" stop-color="#F7DD43" stop-opacity="0"/>
</linearGradient>
<linearGradient id="paint80_linear_167_179" x1="1813.94" y1="732.062" x2="1813.94" y2="1077.96" gradientUnits="userSpaceOnUse">
<stop stop-color="#F7DD43"/>
<stop offset="1" stop-color="#F7DD43" stop-opacity="0"/>
</linearGradient>
<linearGradient id="paint81_linear_167_179" x1="1813.94" y1="732.062" x2="1813.94" y2="1077.96" gradientUnits="userSpaceOnUse">
<stop stop-color="#F7DD43"/>
<stop offset="1" stop-color="#F7DD43" stop-opacity="0"/>
</linearGradient>
<linearGradient id="paint82_linear_167_179" x1="1813.94" y1="732.062" x2="1813.94" y2="1077.96" gradientUnits="userSpaceOnUse">
<stop stop-color="#F7DD43"/>
<stop offset="1" stop-color="#F7DD43" stop-opacity="0"/>
</linearGradient>
<linearGradient id="paint83_linear_167_179" x1="1813.94" y1="732.062" x2="1813.94" y2="1077.96" gradientUnits="userSpaceOnUse">
<stop stop-color="#F7DD43"/>
<stop offset="1" stop-color="#F7DD43" stop-opacity="0"/>
</linearGradient>
<linearGradient id="paint84_linear_167_179" x1="1813.94" y1="732.062" x2="1813.94" y2="1077.96" gradientUnits="userSpaceOnUse">
<stop stop-color="#F7DD43"/>
<stop offset="1" stop-color="#F7DD43" stop-opacity="0"/>
</linearGradient>
<linearGradient id="paint85_linear_167_179" x1="1813.94" y1="732.062" x2="1813.94" y2="1077.96" gradientUnits="userSpaceOnUse">
<stop stop-color="#F7DD43"/>
<stop offset="1" stop-color="#F7DD43" stop-opacity="0"/>
</linearGradient>
<linearGradient id="paint86_linear_167_179" x1="1813.94" y1="732.062" x2="1813.94" y2="1077.96" gradientUnits="userSpaceOnUse">
<stop stop-color="#F7DD43"/>
<stop offset="1" stop-color="#F7DD43" stop-opacity="0"/>
</linearGradient>
<linearGradient id="paint87_linear_167_179" x1="1813.94" y1="732.062" x2="1813.94" y2="1077.96" gradientUnits="userSpaceOnUse">
<stop stop-color="#F7DD43"/>
<stop offset="1" stop-color="#F7DD43" stop-opacity="0"/>
</linearGradient>
<linearGradient id="paint88_linear_167_179" x1="1813.94" y1="732.062" x2="1813.94" y2="1077.96" gradientUnits="userSpaceOnUse">
<stop stop-color="#F7DD43"/>
<stop offset="1" stop-color="#F7DD43" stop-opacity="0"/>
</linearGradient>
<linearGradient id="paint89_linear_167_179" x1="1813.94" y1="732.062" x2="1813.94" y2="1077.96" gradientUnits="userSpaceOnUse">
<stop stop-color="#F7DD43"/>
<stop offset="1" stop-color="#F7DD43" stop-opacity="0"/>
</linearGradient>
<linearGradient id="paint90_linear_167_179" x1="1813.94" y1="732.062" x2="1813.94" y2="1077.96" gradientUnits="userSpaceOnUse">
<stop stop-color="#F7DD43"/>
<stop offset="1" stop-color="#F7DD43" stop-opacity="0"/>
</linearGradient>
<linearGradient id="paint91_linear_167_179" x1="1813.94" y1="732.062" x2="1813.94" y2="1077.96" gradientUnits="userSpaceOnUse">
<stop stop-color="#F7DD43"/>
<stop offset="1" stop-color="#F7DD43" stop-opacity="0"/>
</linearGradient>
<linearGradient id="paint92_linear_167_179" x1="1813.94" y1="732.062" x2="1813.94" y2="1077.96" gradientUnits="userSpaceOnUse">
<stop stop-color="#F7DD43"/>
<stop offset="1" stop-color="#F7DD43" stop-opacity="0"/>
</linearGradient>
<linearGradient id="paint93_linear_167_179" x1="1813.94" y1="732.062" x2="1813.94" y2="1077.96" gradientUnits="userSpaceOnUse">
<stop stop-color="#F7DD43"/>
<stop offset="1" stop-color="#F7DD43" stop-opacity="0"/>
</linearGradient>
</defs>
</svg>
